<mxfile host="app.diagrams.net" agent="Mozilla/5.0 (Windows NT 10.0; Win64; x64) AppleWebKit/537.36 (KHTML, like Gecko) Chrome/132.0.0.0 Safari/537.36 Edg/132.0.0.0" version="26.0.11">
  <diagram name="Page-1" id="SBfMpiESiW5WIuED7A-H">
    <mxGraphModel dx="2977" dy="1751" grid="1" gridSize="10" guides="1" tooltips="1" connect="1" arrows="1" fold="1" page="1" pageScale="1" pageWidth="1100" pageHeight="850" math="0" shadow="0" adaptiveColors="simple">
      <root>
        <mxCell id="0" />
        <mxCell id="1" parent="0" />
        <mxCell id="2" value="AI_Processing_Unit" style="whiteSpace=wrap;strokeWidth=2;labelBackgroundColor=none;fillColor=#09555B;strokeColor=#BAC8D3;fontColor=#EEEEEE;" parent="1" vertex="1">
          <mxGeometry x="1227" y="8" width="195" height="54" as="geometry" />
        </mxCell>
        <mxCell id="3" value="FPGA_ASIC_Accelerator" style="whiteSpace=wrap;strokeWidth=2;labelBackgroundColor=none;fillColor=#09555B;strokeColor=#BAC8D3;fontColor=#EEEEEE;" parent="1" vertex="1">
          <mxGeometry x="1471" y="70" width="229" height="54" as="geometry" />
        </mxCell>
        <mxCell id="4" value="Processor" style="whiteSpace=wrap;strokeWidth=2;labelBackgroundColor=none;fillColor=#09555B;strokeColor=#BAC8D3;fontColor=#EEEEEE;" parent="1" vertex="1">
          <mxGeometry x="1049" y="245" width="127" height="54" as="geometry" />
        </mxCell>
        <mxCell id="5" value="Memory_Subsystem" style="whiteSpace=wrap;strokeWidth=2;labelBackgroundColor=none;fillColor=#09555B;strokeColor=#BAC8D3;fontColor=#EEEEEE;" parent="1" vertex="1">
          <mxGeometry x="769" y="80" width="199" height="54" as="geometry" />
        </mxCell>
        <mxCell id="6" value="Power_Management_Unit" style="whiteSpace=wrap;strokeWidth=2;labelBackgroundColor=none;fillColor=#09555B;strokeColor=#BAC8D3;fontColor=#EEEEEE;" parent="1" vertex="1">
          <mxGeometry x="1750" y="204" width="241" height="54" as="geometry" />
        </mxCell>
        <mxCell id="7" value="Data_Interfaces" style="whiteSpace=wrap;strokeWidth=2;labelBackgroundColor=none;fillColor=#09555B;strokeColor=#BAC8D3;fontColor=#EEEEEE;" parent="1" vertex="1">
          <mxGeometry x="8" y="184" width="173" height="54" as="geometry" />
        </mxCell>
        <mxCell id="8" value="I/O_Peripherals" style="whiteSpace=wrap;strokeWidth=2;labelBackgroundColor=none;fillColor=#09555B;strokeColor=#BAC8D3;fontColor=#EEEEEE;" parent="1" vertex="1">
          <mxGeometry x="231" y="143" width="172" height="54" as="geometry" />
        </mxCell>
        <mxCell id="9" value="Control_Logic_Firmware" style="whiteSpace=wrap;strokeWidth=2;labelBackgroundColor=none;fillColor=#09555B;strokeColor=#BAC8D3;fontColor=#EEEEEE;" parent="1" vertex="1">
          <mxGeometry x="453" y="174" width="234" height="54" as="geometry" />
        </mxCell>
        <mxCell id="10" value="Simulation_Debugging_Ports" style="whiteSpace=wrap;strokeWidth=2;labelBackgroundColor=none;fillColor=#09555B;strokeColor=#BAC8D3;fontColor=#EEEEEE;" parent="1" vertex="1">
          <mxGeometry x="738" y="184" width="262" height="54" as="geometry" />
        </mxCell>
        <mxCell id="11" value="" style="curved=1;startArrow=none;endArrow=block;exitX=1;exitY=0.5;entryX=0.24;entryY=0;labelBackgroundColor=none;fontColor=default;strokeColor=#0B4D6A;" parent="1" source="2" target="3" edge="1">
          <mxGeometry relative="1" as="geometry">
            <Array as="points">
              <mxPoint x="1446" y="35" />
            </Array>
          </mxGeometry>
        </mxCell>
        <mxCell id="12" value="" style="curved=1;startArrow=none;endArrow=block;exitX=0.58;exitY=0;entryX=0;entryY=0.5;labelBackgroundColor=none;fontColor=default;strokeColor=#0B4D6A;" parent="1" source="4" target="2" edge="1">
          <mxGeometry relative="1" as="geometry">
            <Array as="points">
              <mxPoint x="1202" y="35" />
            </Array>
          </mxGeometry>
        </mxCell>
        <mxCell id="13" value="" style="curved=1;startArrow=none;endArrow=block;exitX=0.79;exitY=1;entryX=0.3;entryY=0;labelBackgroundColor=none;fontColor=default;strokeColor=#0B4D6A;" parent="1" source="5" target="4" edge="1">
          <mxGeometry relative="1" as="geometry">
            <Array as="points">
              <mxPoint x="1024" y="180" />
            </Array>
          </mxGeometry>
        </mxCell>
        <mxCell id="14" value="" style="curved=1;startArrow=none;endArrow=block;exitX=1;exitY=0.38;entryX=0;entryY=0.5;labelBackgroundColor=none;fontColor=default;strokeColor=#0B4D6A;" parent="1" source="5" target="3" edge="1">
          <mxGeometry relative="1" as="geometry">
            <Array as="points">
              <mxPoint x="1024" y="97" />
            </Array>
          </mxGeometry>
        </mxCell>
        <mxCell id="15" value="" style="curved=1;startArrow=none;endArrow=block;exitX=1;exitY=0.5;entryX=0.38;entryY=0;labelBackgroundColor=none;fontColor=default;strokeColor=#0B4D6A;" parent="1" source="3" target="6" edge="1">
          <mxGeometry relative="1" as="geometry">
            <Array as="points">
              <mxPoint x="1725" y="97" />
            </Array>
          </mxGeometry>
        </mxCell>
        <mxCell id="16" value="" style="curved=1;startArrow=none;endArrow=block;exitX=0.74;exitY=1;entryX=0.37;entryY=1;labelBackgroundColor=none;fontColor=default;strokeColor=#0B4D6A;" parent="1" source="4" target="6" edge="1">
          <mxGeometry relative="1" as="geometry">
            <Array as="points">
              <mxPoint x="1202" y="354" />
              <mxPoint x="1725" y="354" />
            </Array>
          </mxGeometry>
        </mxCell>
        <mxCell id="17" value="" style="curved=1;startArrow=none;endArrow=block;exitX=0.78;exitY=1;entryX=0;entryY=0.51;labelBackgroundColor=none;fontColor=default;strokeColor=#0B4D6A;" parent="1" source="7" target="4" edge="1">
          <mxGeometry relative="1" as="geometry">
            <Array as="points">
              <mxPoint x="206" y="273" />
              <mxPoint x="1024" y="273" />
            </Array>
          </mxGeometry>
        </mxCell>
        <mxCell id="18" value="" style="curved=1;startArrow=none;endArrow=block;exitX=0.64;exitY=1;entryX=0.43;entryY=1;labelBackgroundColor=none;fontColor=default;strokeColor=#0B4D6A;" parent="1" source="7" target="3" edge="1">
          <mxGeometry relative="1" as="geometry">
            <Array as="points">
              <mxPoint x="206" y="334" />
              <mxPoint x="1446" y="334" />
            </Array>
          </mxGeometry>
        </mxCell>
        <mxCell id="19" value="" style="curved=1;startArrow=none;endArrow=block;exitX=0.65;exitY=0;entryX=0;entryY=0.38;labelBackgroundColor=none;fontColor=default;strokeColor=#0B4D6A;" parent="1" source="7" target="5" edge="1">
          <mxGeometry relative="1" as="geometry">
            <Array as="points">
              <mxPoint x="206" y="97" />
              <mxPoint x="713" y="97" />
            </Array>
          </mxGeometry>
        </mxCell>
        <mxCell id="20" value="" style="curved=1;startArrow=none;endArrow=block;exitX=0.93;exitY=0;entryX=0;entryY=0.5;labelBackgroundColor=none;fontColor=default;strokeColor=#0B4D6A;" parent="1" source="7" target="8" edge="1">
          <mxGeometry relative="1" as="geometry">
            <Array as="points">
              <mxPoint x="206" y="170" />
            </Array>
          </mxGeometry>
        </mxCell>
        <mxCell id="21" value="" style="curved=1;startArrow=none;endArrow=block;exitX=1;exitY=0.5;entryX=0;entryY=0.03;labelBackgroundColor=none;fontColor=default;strokeColor=#0B4D6A;" parent="1" source="8" target="9" edge="1">
          <mxGeometry relative="1" as="geometry">
            <Array as="points">
              <mxPoint x="428" y="170" />
            </Array>
          </mxGeometry>
        </mxCell>
        <mxCell id="22" value="" style="curved=1;startArrow=none;endArrow=block;exitX=0.82;exitY=0;entryX=0;entryY=1;labelBackgroundColor=none;fontColor=default;strokeColor=#0B4D6A;" parent="1" source="9" target="5" edge="1">
          <mxGeometry relative="1" as="geometry">
            <Array as="points">
              <mxPoint x="713" y="149" />
            </Array>
          </mxGeometry>
        </mxCell>
        <mxCell id="23" value="" style="curved=1;startArrow=none;endArrow=block;exitX=0.66;exitY=1;entryX=0;entryY=0.91;labelBackgroundColor=none;fontColor=default;strokeColor=#0B4D6A;" parent="1" source="9" target="4" edge="1">
          <mxGeometry relative="1" as="geometry">
            <Array as="points">
              <mxPoint x="713" y="303" />
              <mxPoint x="1024" y="303" />
            </Array>
          </mxGeometry>
        </mxCell>
        <mxCell id="24" value="" style="curved=1;startArrow=none;endArrow=block;exitX=0;exitY=0.97;entryX=1;entryY=0.8;labelBackgroundColor=none;fontColor=default;strokeColor=#0B4D6A;" parent="1" source="9" target="7" edge="1">
          <mxGeometry relative="1" as="geometry">
            <Array as="points">
              <mxPoint x="428" y="232" />
              <mxPoint x="206" y="232" />
            </Array>
          </mxGeometry>
        </mxCell>
        <mxCell id="25" value="" style="curved=1;startArrow=none;endArrow=block;exitX=1;exitY=0.65;entryX=0;entryY=0.5;labelBackgroundColor=none;fontColor=default;strokeColor=#0B4D6A;" parent="1" source="9" target="10" edge="1">
          <mxGeometry relative="1" as="geometry">
            <Array as="points">
              <mxPoint x="713" y="211" />
            </Array>
          </mxGeometry>
        </mxCell>
      </root>
    </mxGraphModel>
  </diagram>
</mxfile>
